<?xml version="1.0" encoding="UTF-8"?>
<svg version="1.1" xmlns="http://www.w3.org/2000/svg" width="310" height="163">
<path d="M0 0 C102.3 0 204.6 0 310 0 C310 53.79 310 107.58 310 163 C207.7 163 105.4 163 0 163 C0 109.21 0 55.42 0 0 Z " fill="#F6FDFD" transform="translate(0,0)"/>
<path d="M0 0 C0.93925827 0.00202423 1.87851654 0.00404846 2.84623718 0.00613403 C3.82988754 0.00438171 4.8135379 0.00262939 5.82699585 0.00082397 C9.09579709 -0.00359648 12.36454472 -0.00065587 15.63334656 0.00271606 C17.89396678 0.00204308 20.15458693 0.0010731 22.41520691 -0.00018311 C27.15996487 -0.00166034 31.90470405 0.0004953 36.64945984 0.00515747 C42.7464828 0.01085477 48.84346175 0.0075759 54.94048309 0.00158501 C59.61058385 -0.00201991 64.28067408 -0.00088234 68.95077515 0.0017128 C71.19956467 0.00238226 73.44835513 0.00155298 75.69714355 -0.00076675 C78.83410694 -0.00329214 81.97099797 0.00054571 85.10795593 0.00613403 C86.51684334 0.00309769 86.51684334 0.00309769 87.95419312 0 C94.36283431 0.02126631 94.36283431 0.02126631 95.47709656 1.13552856 C95.59919579 2.54670559 95.65480528 3.96373315 95.68241882 5.37991333 C95.71233665 6.73120079 95.71233665 6.73120079 95.74285889 8.10978699 C95.75957138 9.08894577 95.77628387 10.06810455 95.79350281 11.07693481 C95.81428391 12.07434189 95.835065 13.07174896 95.85647583 14.09938049 C95.92208293 17.29885699 95.98090789 20.49841839 96.03959656 23.69802856 C96.08277118 25.86144895 96.12638511 28.02486062 96.17045593 30.18826294 C96.27777559 35.5039273 96.37952082 40.8196769 96.47709656 46.13552856 C97.40522156 45.47552856 98.33334656 44.81552856 99.28959656 44.13552856 C102.47709656 42.13552856 102.47709656 42.13552856 105.47709656 42.13552856 C106.79336347 45.75526259 107.47709656 48.23119987 107.47709656 52.13552856 C108.54959656 51.88802856 109.62209656 51.64052856 110.72709656 51.38552856 C114.47709656 51.13552856 114.47709656 51.13552856 116.91459656 53.07302856 C117.43022156 53.75365356 117.94584656 54.43427856 118.47709656 55.13552856 C119.46709656 53.15552856 120.45709656 51.17552856 121.47709656 49.13552856 C121.80709656 50.12552856 122.13709656 51.11552856 122.47709656 52.13552856 C120.66459656 55.32302856 120.66459656 55.32302856 118.47709656 58.13552856 C117.81709656 58.13552856 117.15709656 58.13552856 116.47709656 58.13552856 C117.2099721 60.74564679 117.96229729 63.34726382 118.72709656 65.94802856 C118.9320575 66.68601685 119.13701843 67.42400513 119.34819031 68.18435669 C120.59286454 72.3521295 121.43938903 74.95275078 125.47709656 77.13552856 C123.16709656 77.13552856 120.85709656 77.13552856 118.47709656 77.13552856 C116.00209656 70.70052856 116.00209656 70.70052856 113.47709656 64.13552856 C111.82709656 64.13552856 110.17709656 64.13552856 108.47709656 64.13552856 C108.51834656 65.08427856 108.55959656 66.03302856 108.60209656 67.01052856 C108.47709656 70.13552856 108.47709656 70.13552856 106.47709656 72.13552856 C103.5879364 72.36257935 103.5879364 72.36257935 99.93803406 72.33084106 C97.98510437 72.3211731 97.98510437 72.3211731 95.99272156 72.31130981 C94.6125106 72.29459786 93.23230227 72.27766795 91.85209656 72.26052856 C90.46408204 72.25049862 89.07606067 72.2413728 87.68803406 72.23318481 C84.2842163 72.20954719 80.88074149 72.17659723 77.47709656 72.13552856 C77.66272156 74.02271606 77.66272156 74.02271606 77.85209656 75.94802856 C77.95651062 77.00957153 77.95651062 77.00957153 78.06303406 78.09255981 C78.40375047 80.43540999 78.40375047 80.43540999 80.47709656 83.13552856 C75.72709656 82.26052856 75.72709656 82.26052856 73.47709656 81.13552856 C73.47709656 78.49552856 73.47709656 75.85552856 73.47709656 73.13552856 C69.84709656 73.13552856 66.21709656 73.13552856 62.47709656 73.13552856 C62.47709656 75.11552856 62.47709656 77.09552856 62.47709656 79.13552856 C61.48709656 79.13552856 60.49709656 79.13552856 59.47709656 79.13552856 C58.98209656 75.67052856 58.98209656 75.67052856 58.47709656 72.13552856 C47.58709656 72.13552856 36.69709656 72.13552856 25.47709656 72.13552856 C25.47709656 75.43552856 25.47709656 78.73552856 25.47709656 82.13552856 C24.81709656 82.79552856 24.15709656 83.45552856 23.47709656 84.13552856 C22.48709656 83.80552856 21.49709656 83.47552856 20.47709656 83.13552856 C21.13709656 81.15552856 21.79709656 79.17552856 22.47709656 77.13552856 C21.81709656 77.13552856 21.15709656 77.13552856 20.47709656 77.13552856 C20.14709656 75.48552856 19.81709656 73.83552856 19.47709656 72.13552856 C17.76610779 72.15123901 17.76610779 72.15123901 16.02055359 72.16726685 C11.79760361 72.20340573 7.57466737 72.22640669 3.35160828 72.24539185 C1.52215783 72.25546341 -0.30727647 72.26912132 -2.13667297 72.28640747 C-4.76285278 72.31060533 -7.38882019 72.32199989 -10.01509094 72.33084106 C-11.24641251 72.34632492 -11.24641251 72.34632492 -12.50260925 72.36212158 C-14.51079487 72.36252041 -16.51845726 72.25802396 -18.52290344 72.13552856 C-19.18290344 71.47552856 -19.84290344 70.81552856 -20.52290344 70.13552856 C-20.52290344 68.15552856 -20.52290344 66.17552856 -20.52290344 64.13552856 C-16.23290344 64.13552856 -11.94290344 64.13552856 -7.52290344 64.13552856 C-7.58272364 60.19636868 -7.66968377 56.26108354 -7.77290344 52.32302856 C-7.78708313 51.20347778 -7.80126282 50.083927 -7.81587219 48.93045044 C-7.84809875 47.85730591 -7.88032532 46.78416138 -7.91352844 45.67849731 C-7.93447571 44.68873901 -7.95542297 43.69898071 -7.977005 42.67922974 C-8.67083566 39.44621469 -9.87825305 38.95997381 -12.52290344 37.13552856 C-13.2668648 31.18383774 -13.2668648 31.18383774 -11.14790344 28.19802856 C-9.52290344 27.13552856 -9.52290344 27.13552856 -7.52290344 27.13552856 C-7.52814026 26.35314819 -7.53337708 25.57076782 -7.53877258 24.76467896 C-7.5594745 21.24247023 -7.57254183 17.72027426 -7.58540344 14.19802856 C-7.59378235 12.96632935 -7.60216125 11.73463013 -7.61079407 10.46560669 C-7.61401672 9.29578247 -7.61723938 8.12595825 -7.62055969 6.92068481 C-7.62579651 5.83666382 -7.63103333 4.75264282 -7.63642883 3.63577271 C-7.41015156 -1.34768011 -4.25013292 0.01410356 0 0 Z " fill="#1893AB" transform="translate(121.52290344238281,69.86447143554688)"/>
<path d="M0 0 C30.69 0 61.38 0 93 0 C93 14.85 93 29.7 93 45 C89.04 45 85.08 45 81 45 C80.01 40.71 79.02 36.42 78 32 C76.02 31.67 74.04 31.34 72 31 C72.99 30.505 72.99 30.505 74 30 C74 27.36 74 24.72 74 22 C71 20.66666667 71 20.66666667 68 22 C68.495 26.455 68.495 26.455 69 31 C67.84951172 31.04447266 67.84951172 31.04447266 66.67578125 31.08984375 C63.69613865 31.76439653 63.69613865 31.76439653 62.41796875 34.94140625 C62.01191406 36.13636719 61.60585937 37.33132812 61.1875 38.5625 C60.55908203 40.35880859 60.55908203 40.35880859 59.91796875 42.19140625 C59.61503906 43.11824219 59.31210938 44.04507813 59 45 C59.99 45.495 59.99 45.495 61 46 C50.11 46 39.22 46 28 46 C29.125 28 29.125 28 30.0625 22 C30.23910156 20.845 30.41570312 19.69 30.59765625 18.5 C30.73042969 17.675 30.86320312 16.85 31 16 C28.06258675 14.84518016 28.06258675 14.84518016 25.0625 15 C22.44078673 15 20.48004826 14.76309177 18 14 C16.54815522 18.53701494 15.76490804 22.18061476 16 27 C16.66 27.33 17.32 27.66 18 28 C18 33.61 18 39.22 18 45 C12.06 45 6.12 45 0 45 C-0.0538854 41.89560214 -0.09361739 38.79213693 -0.125 35.6875 C-0.14175781 34.80642578 -0.15851563 33.92535156 -0.17578125 33.01757812 C-0.18222656 32.17001953 -0.18867187 31.32246094 -0.1953125 30.44921875 C-0.20578613 29.66893311 -0.21625977 28.88864746 -0.22705078 28.0847168 C0 26 0 26 2 23 C2.33340471 19.95804573 2.33340471 19.95804573 2 17 C1.34 16.34 0.68 15.68 0 15 C0 10.05 0 5.1 0 0 Z " fill="#F8FDFE" transform="translate(119,83)"/>
<path d="M0 0 C2 3 2 3 1.9375 6.4375 C1.63324339 9.92435543 1.63324339 9.92435543 3.45703125 11.80078125 C7.89161238 18.12146271 6.08056513 28.67616965 5 36 C4.14582736 43.52302295 4.14582736 43.52302295 7.4375 49.9375 C8.283125 50.618125 9.12875 51.29875 10 52 C10.875 54.1875 10.875 54.1875 11 56 C10.67 56.66 10.34 57.32 10 58 C11.59884033 57.77691162 11.59884033 57.77691162 13.22998047 57.54931641 C24.96130594 56.01937557 36.32064817 55.91511976 48.125 56.375 C49.87365882 56.43347271 51.62235738 56.4907693 53.37109375 56.546875 C57.58130811 56.68444307 61.7906721 56.83763379 66 57 C66.495 59.475 66.495 59.475 67 62 C67.66 62 68.32 62 69 62 C68.67 63.98 68.34 65.96 68 68 C68.99 67.67 69.98 67.34 71 67 C71.495 62.05 71.495 62.05 72 57 C82.89 57 93.78 57 105 57 C105.495 60.465 105.495 60.465 106 64 C106.99 64 107.98 64 109 64 C109 62.02 109 60.04 109 58 C112.63 58 116.26 58 120 58 C120 60.64 120 63.28 120 66 C122.97 66.495 122.97 66.495 126 67 C125.34 66.34 124.68 65.68 124 65 C124 62.36 124 59.72 124 57 C133.57 56.67 143.14 56.34 153 56 C153.66 53.69 154.32 51.38 155 49 C153.35 49 151.7 49 150 49 C150 48.67 150 48.34 150 48 C153.3 48 156.6 48 160 48 C162.53634391 52.74541763 164.45734262 56.57342622 165 62 C167.97 62 170.94 62 174 62 C174 62.99 174 63.98 174 65 C166.01005505 67.17496671 158.16265469 68.6976283 149.9375 69.625 C148.46893555 69.80675781 148.46893555 69.80675781 146.97070312 69.9921875 C128.08294918 72.2043751 109.11438302 72.18805598 90.1262207 72.18530273 C87.27361619 72.18522215 84.42117462 72.19207134 81.56860352 72.20581055 C12.28004842 72.53385875 12.28004842 72.53385875 -6 64 C-3.66666667 61.66666667 -1.33333333 59.33333333 1 57 C0.94851884 51.65826728 0.94851884 51.65826728 -1.57421875 47.25 C-3.70810984 43.88254447 -3.03279286 40.67427017 -2.625 36.875 C-1.86019436 31.80389327 -1.86019436 31.80389327 -3 27 C-2.34 26.21625 -1.68 25.4325 -1 24.625 C1.20201441 22.28487188 1.20201441 22.28487188 1 20 C0.01 20 -0.98 20 -2 20 C-1.94779297 19.07767578 -1.94779297 19.07767578 -1.89453125 18.13671875 C-1.85392578 16.92435547 -1.85392578 16.92435547 -1.8125 15.6875 C-1.77769531 14.88699219 -1.74289063 14.08648437 -1.70703125 13.26171875 C-2.0688383 10.46856829 -2.95333052 9.84200253 -5 8 C-6.1875 4.8125 -6.1875 4.8125 -7 2 C-4 0 -4 0 0 0 Z " fill="#D4F1F9" transform="translate(75,85)"/>
<path d="M0 0 C2.4375 0.1875 2.4375 0.1875 3.4375 1.1875 C6.32002645 1.34773562 9.18128527 1.44704029 12.06640625 1.50390625 C13.36275246 1.5350779 13.36275246 1.5350779 14.68528748 1.56687927 C17.45677445 1.63247114 20.22835921 1.69130418 23 1.75 C24.87435923 1.79317608 26.74870843 1.83679006 28.62304688 1.88085938 C33.22776336 1.98816227 37.83257858 2.08940215 42.4375 2.1875 C42.4645817 4.91673388 42.48437847 7.64569637 42.5 10.375 C42.50837891 11.14392578 42.51675781 11.91285156 42.52539062 12.70507812 C42.54252958 16.69845467 42.30126555 20.27176285 41.4375 24.1875 C41.81472015 26.91252965 41.81472015 26.91252965 42.4375 29.1875 C41.28701172 29.23197266 41.28701172 29.23197266 40.11328125 29.27734375 C37.13363865 29.95189653 37.13363865 29.95189653 35.85546875 33.12890625 C35.44941406 34.32386719 35.04335937 35.51882812 34.625 36.75 C33.99658203 38.54630859 33.99658203 38.54630859 33.35546875 40.37890625 C33.05253906 41.30574219 32.74960938 42.23257813 32.4375 43.1875 C33.4275 43.6825 33.4275 43.6825 34.4375 44.1875 C23.5475 44.1875 12.6575 44.1875 1.4375 44.1875 C2.5625 26.1875 2.5625 26.1875 3.5 20.1875 C3.67660156 19.0325 3.85320312 17.8775 4.03515625 16.6875 C4.16792969 15.8625 4.30070313 15.0375 4.4375 14.1875 C1.2410914 13.12203047 -1.21997276 13.11322162 -4.5625 13.1875 C-4.8925 12.5275 -5.2225 11.8675 -5.5625 11.1875 C-4.5725 11.1875 -3.5825 11.1875 -2.5625 11.1875 C-2.5625 9.8675 -2.5625 8.5475 -2.5625 7.1875 C-3.2225 7.1875 -3.8825 7.1875 -4.5625 7.1875 C-4.6875 4.8125 -4.6875 4.8125 -4.5625 2.1875 C-2.5625 0.1875 -2.5625 0.1875 0 0 Z " fill="#DEF6FB" transform="translate(145.5625,84.8125)"/>
<path d="M0 0 C0.93925827 0.00202423 1.87851654 0.00404846 2.84623718 0.00613403 C3.82988754 0.00438171 4.8135379 0.00262939 5.82699585 0.00082397 C9.09579709 -0.00359648 12.36454472 -0.00065587 15.63334656 0.00271606 C17.89396678 0.00204308 20.15458693 0.0010731 22.41520691 -0.00018311 C27.15996487 -0.00166034 31.90470405 0.0004953 36.64945984 0.00515747 C42.7464828 0.01085477 48.84346175 0.0075759 54.94048309 0.00158501 C59.61058385 -0.00201991 64.28067408 -0.00088234 68.95077515 0.0017128 C71.19956467 0.00238226 73.44835513 0.00155298 75.69714355 -0.00076675 C78.83410694 -0.00329214 81.97099797 0.00054571 85.10795593 0.00613403 C86.51684334 0.00309769 86.51684334 0.00309769 87.95419312 0 C94.36283431 0.02126631 94.36283431 0.02126631 95.47709656 1.13552856 C95.5908647 2.58180533 95.63663331 4.03352199 95.65409851 5.48416138 C95.67335136 6.87130341 95.67335136 6.87130341 95.69299316 8.28646851 C95.7003801 9.29368958 95.70776703 10.30091064 95.71537781 11.33865356 C95.72344955 12.36859436 95.7315213 13.39853516 95.73983765 14.45968628 C95.75369862 16.64539903 95.76441172 18.83113362 95.77226257 21.01687622 C95.78945299 24.35762766 95.83331911 27.69738409 95.87748718 31.03787231 C95.88761555 33.15895877 95.8961312 35.28005366 95.90287781 37.40115356 C95.92038589 38.40027771 95.93789398 39.39940186 95.95593262 40.42880249 C95.95300705 41.36617249 95.95008148 42.30354248 95.94706726 43.26931763 C95.9529335 44.09014832 95.95879974 44.910979 95.96484375 45.75668335 C95.47709656 48.13552856 95.47709656 48.13552856 91.47709656 53.13552856 C91.47709656 37.29552856 91.47709656 21.45552856 91.47709656 5.13552856 C60.12709656 5.13552856 28.77709656 5.13552856 -3.52290344 5.13552856 C-5.08619729 25.24650408 -5.08619729 25.24650408 0.47709656 30.13552856 C0.90188242 34.21347281 0.78992243 35.66628976 -1.52290344 39.13552856 C-2.18290344 39.13552856 -2.84290344 39.13552856 -3.52290344 39.13552856 C-3.52290344 45.73552856 -3.52290344 52.33552856 -3.52290344 59.13552856 C3.07709656 59.13552856 9.67709656 59.13552856 16.47709656 59.13552856 C16.47709656 60.78552856 16.47709656 62.43552856 16.47709656 64.13552856 C8.55709656 64.13552856 0.63709656 64.13552856 -7.52290344 64.13552856 C-7.77290344 52.32302856 -7.77290344 52.32302856 -7.820755 48.60891724 C-7.85137024 47.64187866 -7.88198547 46.67484009 -7.91352844 45.67849731 C-7.93447571 44.68873901 -7.95542297 43.69898071 -7.977005 42.67922974 C-8.67083566 39.44621469 -9.87825305 38.95997381 -12.52290344 37.13552856 C-13.2668648 31.18383774 -13.2668648 31.18383774 -11.14790344 28.19802856 C-9.52290344 27.13552856 -9.52290344 27.13552856 -7.52290344 27.13552856 C-7.52814026 26.35314819 -7.53337708 25.57076782 -7.53877258 24.76467896 C-7.5594745 21.24247023 -7.57254183 17.72027426 -7.58540344 14.19802856 C-7.59378235 12.96632935 -7.60216125 11.73463013 -7.61079407 10.46560669 C-7.61401672 9.29578247 -7.61723938 8.12595825 -7.62055969 6.92068481 C-7.62579651 5.83666382 -7.63103333 4.75264282 -7.63642883 3.63577271 C-7.41015156 -1.34768011 -4.25013292 0.01410356 0 0 Z " fill="#2B5458" transform="translate(121.52290344238281,69.86447143554688)"/>
<path d="M0 0 C31.35 0 62.7 0 95 0 C95.33 15.18 95.66 30.36 96 46 C97.65 44.02 99.3 42.04 101 40 C104.02215181 37.84132013 105.27179182 37 109 37 C110.31626692 40.61973402 111 43.09567131 111 47 C112.0725 46.7525 113.145 46.505 114.25 46.25 C118 46 118 46 120.4375 47.9375 C120.953125 48.618125 121.46875 49.29875 122 50 C122.99 48.02 123.98 46.04 125 44 C126 47 126 47 124.75 50.1875 C122 53 122 53 119.52734375 53.3515625 C117.66644911 53.3259656 115.80538354 53.2483232 113.94921875 53.11328125 C110.95729252 52.90588267 110.95729252 52.90588267 107.859375 53.4765625 C102.74291865 54.17049484 97.71826063 54.1061076 92.5625 54.0625 C91.54478516 54.05798828 90.52707031 54.05347656 89.47851562 54.04882812 C86.98561491 54.03712437 84.49283926 54.02072848 82 54 C82 53.67 82 53.34 82 53 C85.96 53 89.92 53 94 53 C94 38.15 94 23.3 94 8 C63.31 8 32.62 8 1 8 C1 12.62 1 17.24 1 22 C0.67 22 0.34 22 0 22 C0 14.74 0 7.48 0 0 Z " fill="#50B9CD" transform="translate(118,75)"/>
<path d="M0 0 C30.69 0 61.38 0 93 0 C93 0.33 93 0.66 93 1 C68.91 1 44.82 1 20 1 C20 4.63 20 8.26 20 12 C19.01 13.32 18.02 14.64 17 16 C16.42770132 18.80883637 16.42770132 18.80883637 16.3125 21.75 C16.24675781 22.73484375 16.18101562 23.7196875 16.11328125 24.734375 C16.07589844 25.48203125 16.03851563 26.2296875 16 27 C16.66 27.33 17.32 27.66 18 28 C18 33.61 18 39.22 18 45 C12.06 45 6.12 45 0 45 C-0.0538854 41.89560214 -0.09361739 38.79213693 -0.125 35.6875 C-0.14175781 34.80642578 -0.15851563 33.92535156 -0.17578125 33.01757812 C-0.18222656 32.17001953 -0.18867187 31.32246094 -0.1953125 30.44921875 C-0.20578613 29.66893311 -0.21625977 28.88864746 -0.22705078 28.0847168 C0 26 0 26 2 23 C2.33340471 19.95804573 2.33340471 19.95804573 2 17 C1.34 16.34 0.68 15.68 0 15 C0 10.05 0 5.1 0 0 Z " fill="#D7F3FB" transform="translate(119,83)"/>
<path d="M0 0 C0.598125 0.350625 1.19625 0.70125 1.8125 1.0625 C1.4825 3.7025 1.1525 6.3425 0.8125 9.0625 C1.43640625 9.30355469 2.0603125 9.54460937 2.703125 9.79296875 C5.34586113 11.38350438 5.68160951 12.46316754 6.5625 15.375 C6.80484375 16.13425781 7.0471875 16.89351562 7.296875 17.67578125 C7.84385447 20.2076332 7.84789972 22.48019805 7.8125 25.0625 C11.3335863 24.92241329 14.85429712 24.77439018 18.375 24.625 C19.36564453 24.58568359 20.35628906 24.54636719 21.37695312 24.50585938 C26.59006979 24.28070816 31.64884724 23.85285501 36.8125 23.0625 C39.4918948 22.95498014 42.12882049 23.0154179 44.8125 23.0625 C48.78472693 32.64597953 48.78472693 32.64597953 49.8125 37 C50.9063249 40.34983876 51.79470949 41.35241871 54.8125 43.0625 C52.5025 43.0625 50.1925 43.0625 47.8125 43.0625 C46.1625 38.7725 44.5125 34.4825 42.8125 30.0625 C41.80348633 30.07821045 40.79447266 30.0939209 39.75488281 30.11010742 C36.00528979 30.1644768 32.2557315 30.19887532 28.50585938 30.22729492 C26.88405494 30.24236565 25.26229116 30.26282593 23.640625 30.28881836 C21.30718954 30.32527829 18.97429369 30.34224314 16.640625 30.35546875 C15.91756165 30.37095261 15.19449829 30.38643646 14.44952393 30.40238953 C10.15835793 30.4038186 8.03268233 29.8609432 4.8125 27.0625 C1.18227329 26.58660642 1.18227329 26.58660642 -2.75 26.6875 C-3.42224609 26.67589844 -4.09449219 26.66429687 -4.78710938 26.65234375 C-7.00438138 26.62970975 -7.00438138 26.62970975 -10.1875 27.0625 C-10.60290039 27.55967529 -11.01830078 28.05685059 -11.44628906 28.5690918 C-14.14900524 30.88716735 -17.09128623 30.43213693 -20.48046875 30.35546875 C-21.53951164 30.34910149 -21.53951164 30.34910149 -22.61994934 30.34260559 C-24.87202303 30.32583034 -27.12319742 30.28818243 -29.375 30.25 C-30.90298185 30.23495157 -32.43097776 30.22126344 -33.95898438 30.20898438 C-37.70216872 30.17593089 -41.44468196 30.12415832 -45.1875 30.0625 C-45.1875 28.4125 -45.1875 26.7625 -45.1875 25.0625 C-29.8425 24.5675 -29.8425 24.5675 -14.1875 24.0625 C-13.5275 21.0925 -12.8675 18.1225 -12.1875 15.0625 C-10.875 12 -10.875 12 -9.1875 10.0625 C-6.5 9.75 -6.5 9.75 -4.1875 10.0625 C-4.7134375 8.9796875 -4.7134375 8.9796875 -5.25 7.875 C-6.29159017 4.7502295 -6.07846572 3.18088004 -5.1875 0.0625 C-2.1875 -0.9375 -2.1875 -0.9375 0 0 Z " fill="#2C5358" transform="translate(192.1875,103.9375)"/>
<path d="M0 0 C1.33463459 -0.00795214 2.66944668 0.00040752 4.00390625 0.0234375 C5.32261719 0.01570312 6.64132813 0.00796875 8 0 C11.56640625 0.3984375 11.56640625 0.3984375 13.3684082 1.89135742 C16.3913445 3.96406494 18.65861642 3.83028421 22.30078125 3.91015625 C23.59628906 3.94560547 24.89179688 3.98105469 26.2265625 4.01757812 C27.58983851 4.04067617 28.95311989 4.06345864 30.31640625 4.0859375 C31.69534487 4.11912398 33.07425275 4.15361488 34.453125 4.18945312 C37.82413684 4.27196041 41.19488753 4.34110521 44.56640625 4.3984375 C44.69140625 7.2734375 44.69140625 7.2734375 44.56640625 10.3984375 C42.56640625 12.3984375 42.56640625 12.3984375 39.67724609 12.62548828 C38.47277832 12.61501465 37.26831055 12.60454102 36.02734375 12.59375 C34.07441406 12.58408203 34.07441406 12.58408203 32.08203125 12.57421875 C30.7018203 12.55750679 29.32161196 12.54057689 27.94140625 12.5234375 C26.55339173 12.51340756 25.16537036 12.50428173 23.77734375 12.49609375 C20.37352599 12.47245613 16.97005119 12.43950617 13.56640625 12.3984375 C13.69015625 13.6565625 13.81390625 14.9146875 13.94140625 16.2109375 C14.04582031 17.27248047 14.04582031 17.27248047 14.15234375 18.35546875 C14.49306016 20.69831892 14.49306016 20.69831892 16.56640625 23.3984375 C11.81640625 22.5234375 11.81640625 22.5234375 9.56640625 21.3984375 C9.56640625 18.7584375 9.56640625 16.1184375 9.56640625 13.3984375 C5.93640625 13.3984375 2.30640625 13.3984375 -1.43359375 13.3984375 C-1.43359375 15.3784375 -1.43359375 17.3584375 -1.43359375 19.3984375 C-2.42359375 19.3984375 -3.41359375 19.3984375 -4.43359375 19.3984375 C-4.92859375 15.9334375 -4.92859375 15.9334375 -5.43359375 12.3984375 C-16.32359375 12.3984375 -27.21359375 12.3984375 -38.43359375 12.3984375 C-38.43359375 9.7584375 -38.43359375 7.1184375 -38.43359375 4.3984375 C-37.4799292 4.38385498 -36.52626465 4.36927246 -35.54370117 4.35424805 C-32.0042579 4.29625958 -28.46545051 4.21902792 -24.92651367 4.13598633 C-23.39504316 4.10273932 -21.86345019 4.07470657 -20.33178711 4.05200195 C-18.12951488 4.01845032 -15.92836463 3.9661384 -13.7265625 3.91015625 C-13.04208542 3.90376633 -12.35760834 3.8973764 -11.65238953 3.89079285 C-7.8468383 3.81454515 -7.8468383 3.81454515 -4.69238281 1.89135742 C-3.43359375 0.3984375 -3.43359375 0.3984375 0 0 Z " fill="#048BA6" transform="translate(185.43359375,129.6015625)"/>
<path d="M0 0 C8.58 0 17.16 0 26 0 C26 6.6 26 13.2 26 20 C17.42 20 8.84 20 0 20 C0 13.4 0 6.8 0 0 Z " fill="#F40D50" transform="translate(257,51)"/>
<path d="M0 0 C-1.65 4.62 -3.3 9.24 -5 14 C-4.34 14.33 -3.68 14.66 -3 15 C-13.89 15 -24.78 15 -36 15 C-35.67 10.05 -35.34 5.1 -35 0 C-31.04193021 -0.19639278 -27.08381556 -0.38235165 -23.125 -0.5625 C-22.01640625 -0.61857422 -20.9078125 -0.67464844 -19.765625 -0.73242188 C-13.04249186 -1.02903069 -6.67841218 -0.84260341 0 0 Z " fill="#EEF7F8" transform="translate(183,114)"/>
<path d="M0 0 C3.69376694 1.34318798 6.68875306 3.0533749 9.9375 5.25 C13.71708887 7.61032086 13.71708887 7.61032086 18.0625 7.75 C21.48673255 5.71003167 24.7981451 3.55165875 28.046875 1.2421875 C30 0 30 0 32 0 C32.02683987 2.97922593 32.04676037 5.95821295 32.0625 8.9375 C32.07087891 9.78763672 32.07925781 10.63777344 32.08789062 11.51367188 C32.09111328 12.32255859 32.09433594 13.13144531 32.09765625 13.96484375 C32.10289307 14.7137085 32.10812988 15.46257324 32.11352539 16.23413086 C32 18 32 18 31 19 C28.79349344 19.10012401 26.58377614 19.1308118 24.375 19.1328125 C23.71290527 19.13376923 23.05081055 19.13472595 22.36865234 19.13571167 C20.96647039 19.13639326 19.5642853 19.13454042 18.16210938 19.13037109 C16.00904287 19.12502246 13.85618498 19.1303167 11.703125 19.13671875 C10.34374954 19.13605796 8.9843742 19.13477679 7.625 19.1328125 C6.37976563 19.13168457 5.13453125 19.13055664 3.8515625 19.12939453 C1 19 1 19 0 18 C-0.08631874 16.65732587 -0.10706473 15.31025678 -0.09765625 13.96484375 C-0.09443359 13.15595703 -0.09121094 12.34707031 -0.08789062 11.51367188 C-0.07951172 10.66353516 -0.07113281 9.81339844 -0.0625 8.9375 C-0.05798828 8.08349609 -0.05347656 7.22949219 -0.04882812 6.34960938 C-0.03700373 4.23304337 -0.01906769 2.11651315 0 0 Z " fill="#0D93AE" transform="translate(136,39)"/>
<path d="M0 0 C2.60964149 1.03012164 3.83498357 1.58694861 5.375 3.9375 C5.79978586 8.01544425 5.68782587 9.46826119 3.375 12.9375 C2.715 12.9375 2.055 12.9375 1.375 12.9375 C1.375 19.5375 1.375 26.1375 1.375 32.9375 C7.975 32.9375 14.575 32.9375 21.375 32.9375 C21.375 34.5875 21.375 36.2375 21.375 37.9375 C13.455 37.9375 5.535 37.9375 -2.625 37.9375 C-2.875 26.125 -2.875 26.125 -2.92285156 22.41088867 C-2.9534668 21.4438501 -2.98408203 20.47681152 -3.015625 19.48046875 C-3.03657227 18.49071045 -3.05751953 17.50095215 -3.07910156 16.48120117 C-3.77296426 13.24803686 -4.97324015 12.75450659 -7.625 10.9375 C-8.1875 7.5 -8.1875 7.5 -7.625 3.9375 C-5.12942843 1.08541821 -3.84213882 -0.0914795 0 0 Z " fill="#295256" transform="translate(116.625,96.0625)"/>
<path d="M0 0 C2 3 2 3 1.9375 6.4375 C1.63324339 9.92435543 1.63324339 9.92435543 3.45703125 11.80078125 C7.89161238 18.12146271 6.08056513 28.67616965 5 36 C4.39276852 44.50398729 4.39276852 44.50398729 8 52 C7.67 52.66 7.34 53.32 7 54 C6.34 54 5.68 54 5 54 C4.67 54.66 4.34 55.32 4 56 C3.01 56 2.02 56 1 56 C0.896875 54.9275 0.79375 53.855 0.6875 52.75 C0.35688596 49.08843429 0.35688596 49.08843429 -1.56640625 47.2734375 C-3.70037377 43.88932551 -3.03434385 40.68872021 -2.625 36.875 C-1.86019436 31.80389327 -1.86019436 31.80389327 -3 27 C-2.34 26.21625 -1.68 25.4325 -1 24.625 C1.20201441 22.28487188 1.20201441 22.28487188 1 20 C0.01 20 -0.98 20 -2 20 C-1.94779297 19.07767578 -1.94779297 19.07767578 -1.89453125 18.13671875 C-1.85392578 16.92435547 -1.85392578 16.92435547 -1.8125 15.6875 C-1.77769531 14.88699219 -1.74289063 14.08648437 -1.70703125 13.26171875 C-2.0688383 10.46856829 -2.95333052 9.84200253 -5 8 C-6.1875 4.8125 -6.1875 4.8125 -7 2 C-4 0 -4 0 0 0 Z " fill="#F0064B" transform="translate(75,85)"/>
<path d="M0 0 C2.8875 0.061875 5.775 0.12375 8.75 0.1875 C9.65331055 0.19418701 10.55662109 0.20087402 11.48730469 0.20776367 C15.61061149 0.36858554 17.42285707 0.48048405 20.58203125 3.32421875 C22.52194481 6.98493718 22.09343265 9.06364245 21 13 C19.42114034 15.05938216 18.30857577 15.84571211 16 17 C13.28573859 17.23240505 10.59366233 17.41908802 7.875 17.5625 C5.27625 17.706875 2.6775 17.85125 0 18 C0 12.06 0 6.12 0 0 Z " fill="#F75991" transform="translate(41,50)"/>
<path d="M0 0 C12.54 0 25.08 0 38 0 C38.66 2.64 39.32 5.28 40 8 C34.62485095 8.04935509 29.24983315 8.08569802 23.87451172 8.10986328 C22.04506127 8.11993484 20.21562697 8.13359276 18.38623047 8.15087891 C15.76005066 8.17507677 13.13408325 8.18647132 10.5078125 8.1953125 C9.27649094 8.21079636 9.27649094 8.21079636 8.02029419 8.22659302 C6.01210858 8.22699184 4.00444618 8.1224954 2 8 C1.34 7.34 0.68 6.68 0 6 C0 4.02 0 2.04 0 0 Z " fill="#3C6E73" transform="translate(101,134)"/>
<path d="M0 0 C0.8971875 0.5259375 0.8971875 0.5259375 1.8125 1.0625 C1.4825 3.7025 1.1525 6.3425 0.8125 9.0625 C1.74835938 9.42408203 1.74835938 9.42408203 2.703125 9.79296875 C5.96066602 11.75352585 6.2396271 14.29293945 7.28515625 17.796875 C7.8637245 20.28257563 8.058684 22.51859865 7.8125 25.0625 C6.4925 25.0625 5.1725 25.0625 3.8125 25.0625 C3.8125 23.4125 3.8125 21.7625 3.8125 20.0625 C-0.4775 20.0625 -4.7675 20.0625 -9.1875 20.0625 C-9.1875 21.7125 -9.1875 23.3625 -9.1875 25.0625 C-10.8375 24.7325 -12.4875 24.4025 -14.1875 24.0625 C-12.24499129 13.57295296 -12.24499129 13.57295296 -9.1875 10.0625 C-6.5 9.75 -6.5 9.75 -4.1875 10.0625 C-4.538125 9.340625 -4.88875 8.61875 -5.25 7.875 C-6.29159017 4.7502295 -6.07846572 3.18088004 -5.1875 0.0625 C-2.1875 -0.9375 -2.1875 -0.9375 0 0 Z " fill="#F65F34" transform="translate(192.1875,103.9375)"/>
<path d="M0 0 C1.58409994 0.11487748 3.16728963 0.24234508 4.75 0.375 C5.63171875 0.44460937 6.5134375 0.51421875 7.421875 0.5859375 C10 1 10 1 14 3 C13.34 8.61 12.68 14.22 12 20 C7.52745503 21.49084832 3.47254497 21.49084832 -1 20 C-0.67 18.35 -0.34 16.7 0 15 C-0.99 14.67 -1.98 14.34 -3 14 C-2.88570603 12.22844346 -2.75816963 10.45773771 -2.625 8.6875 C-2.55539063 7.70136719 -2.48578125 6.71523437 -2.4140625 5.69921875 C-2 3 -2 3 0 0 Z " fill="#3FDC2A" transform="translate(137,96)"/>
<path d="M0 0 C1.31626692 3.61973402 2 6.09567131 2 10 C3.0725 9.7525 4.145 9.505 5.25 9.25 C9 9 9 9 11.4375 10.9375 C11.953125 11.618125 12.46875 12.29875 13 13 C13.99 11.02 14.98 9.04 16 7 C17 10 17 10 15.75 13.1875 C13 16 13 16 10.52734375 16.3515625 C8.5966053 16.32500489 6.66607826 16.25432631 4.73828125 16.14453125 C1.39219834 15.96791917 -1.69169636 16.50988094 -5 17 C-8.00224002 17.08218692 -10.9975125 17.06127526 -14 17 C-14.35213269 13.30260672 -14.1427196 11.27973042 -12.4375 7.9375 C-9.07407181 3.88413783 -5.4868499 0 0 0 Z " fill="#30A5BC" transform="translate(227,112)"/>
<path d="M0 0 C10.56 0 21.12 0 32 0 C32.495 3.96 32.495 3.96 33 8 C22.11 8 11.22 8 0 8 C0 5.36 0 2.72 0 0 Z " fill="#3B6C71" transform="translate(147,134)"/>
<path d="M0 0 C9.57 0 19.14 0 29 0 C29 1.98 29 3.96 29 6 C27 8 27 8 24.20263672 8.22705078 C23.04006348 8.21657715 21.87749023 8.20610352 20.6796875 8.1953125 C18.79443359 8.18564453 18.79443359 8.18564453 16.87109375 8.17578125 C15.55238281 8.15902344 14.23367187 8.14226562 12.875 8.125 C11.53516279 8.11496983 10.19531848 8.10584404 8.85546875 8.09765625 C5.57013427 8.07402075 2.28515535 8.04107234 -1 8 C-0.67 5.36 -0.34 2.72 0 0 Z " fill="#3E6E73" transform="translate(201,134)"/>
<path d="M0 0 C4.0318506 1.3439502 5.32041925 2.42675465 7.375 6.125 C7.9375 9.125 7.9375 9.125 7.375 12.125 C5.37866611 14.99472996 3.90270117 16.77710765 0.40234375 17.57421875 C-2.9445592 17.75563966 -5.25396551 17.34762069 -8.125 15.625 C-9.84022293 12.76629512 -10.31808599 10.44122125 -10.13671875 7.1015625 C-9.625 5.125 -9.625 5.125 -7.0625 2.0625 C-3.625 0.125 -3.625 0.125 0 0 Z " fill="#FA8B6C" transform="translate(255.625,84.875)"/>
<path d="M0 0 C4.4297642 0.79102932 5.89210172 1.98974785 8.5 5.625 C9.125 8.625 9.125 8.625 8.5 11.625 C6.50028288 14.49959336 5.01060972 16.25407801 1.52734375 17.109375 C-2.21889787 17.36145855 -4.14043025 16.93063428 -7 14.5 C-8.77801176 11.09214413 -9.20960213 9.40954468 -8.5 5.625 C-5.89210172 1.98974785 -4.4297642 0.79102932 0 0 Z " fill="#33DE1C" transform="translate(227.5,53.375)"/>
<path d="M0 0 C4.4297642 0.79102932 5.89210172 1.98974785 8.5 5.625 C9.125 8.625 9.125 8.625 8.5 11.625 C6.50028288 14.49959336 5.01060972 16.25407801 1.52734375 17.109375 C-2.21889787 17.36145855 -4.14043025 16.93063428 -7 14.5 C-8.77801176 11.09214413 -9.20960213 9.40954468 -8.5 5.625 C-5.89210172 1.98974785 -4.4297642 0.79102932 0 0 Z " fill="#0B92AD" transform="translate(38.5,102.375)"/>
<path d="M0 0 C2.5 1.5 2.5 1.5 4 4 C4.79669284 8.04985528 4.64099302 10.97441116 2.4375 14.5 C-0.96381375 16.59311615 -3.07072743 16.55147685 -7 16 C-9.9375 14.5 -9.9375 14.5 -12 12 C-12.9352036 7.99667231 -12.61385602 5.02309336 -10.5 1.5 C-6.96411027 -0.62153384 -4.02098277 -0.791013 0 0 Z " fill="#F4064A" transform="translate(148,8)"/>
<path d="M0 0 C0.33 0 0.66 0 1 0 C1 2.31 1 4.62 1 7 C3.64 7 6.28 7 9 7 C9 5.35 9 3.7 9 2 C9.33 2 9.66 2 10 2 C10 3.65 10 5.3 10 7 C44.65 6.505 44.65 6.505 80 6 C80 5.34 80 4.68 80 4 C80.99 4 81.98 4 83 4 C83.495 4.99 83.495 4.99 84 6 C84.33 5.34 84.66 4.68 85 4 C87.64 4 90.28 4 93 4 C93.66 2.68 94.32 1.36 95 0 C95 17.82 95 35.64 95 54 C90.71 54 86.42 54 82 54 C82 53.67 82 53.34 82 53 C85.96 53 89.92 53 94 53 C94 38.15 94 23.3 94 8 C63.31 8 32.62 8 1 8 C1 12.62 1 17.24 1 22 C0.67 22 0.34 22 0 22 C0 14.74 0 7.48 0 0 Z " fill="#6DB7BD" transform="translate(118,75)"/>
<path d="M0 0 C3.97222693 9.58347953 3.97222693 9.58347953 5 13.9375 C6.0938249 17.28733876 6.98220949 18.28991871 10 20 C7.69 20 5.38 20 3 20 C1.35 15.71 -0.3 11.42 -2 7 C-9.26 7 -16.52 7 -24 7 C-24.33 5.35 -24.66 3.7 -25 2 C-22.33397504 1.66068773 -19.66736986 1.32842824 -17 1 C-15.88431641 0.85691406 -15.88431641 0.85691406 -14.74609375 0.7109375 C-9.79111949 0.10772324 -4.99157504 -0.09075591 0 0 Z " fill="#E90649" transform="translate(237,127)"/>
<path d="M0 0 C1.62974564 0.76074843 3.25366648 1.53398433 4.875 2.3125 C6.23238281 2.95638672 6.23238281 2.95638672 7.6171875 3.61328125 C10 5 10 5 12 8 C11.360625 7.835 10.72125 7.67 10.0625 7.5 C6.02413348 6.84067485 2.08192742 6.91996221 -2 7 C-2 7.66 -2 8.32 -2 9 C-0.989375 8.79375 0.02125 8.5875 1.0625 8.375 C5.31354129 7.97013892 8.03109971 8.49181789 12 10 C12.33 10.66 12.66 11.32 13 12 C10.36 12 7.72 12 5 12 C5.33 14.31 5.66 16.62 6 19 C0.14553708 17.9022882 -2.98876151 15.63341005 -7.30078125 11.55859375 C-8.93091913 9.91994822 -8.93091913 9.91994822 -11 9 C-11 8.34 -11 7.68 -11 7 C-6.77050005 4.58314288 -3.87664009 3.65166856 1 4 C0.67 2.68 0.34 1.36 0 0 Z " fill="#BBE6F2" transform="translate(96,122)"/>
<path d="M0 0 C0.33 0 0.66 0 1 0 C1 7.92 1 15.84 1 24 C0.67 24 0.34 24 0 24 C0 22.02 0 20.04 0 18 C-0.99 18.33 -1.98 18.66 -3 19 C-4.47265625 17.92578125 -4.47265625 17.92578125 -6.0625 16.3125 C-10.19378991 12.50923097 -14.74386722 10.79787238 -20 9 C-20 8.67 -20 8.34 -20 8 C-18.35 7.67 -16.7 7.34 -15 7 C-16.98 6.01 -18.96 5.02 -21 4 C-21 3.67 -21 3.34 -21 3 C-15.555 2.01 -15.555 2.01 -10 1 C-10.33 2.32 -10.66 3.64 -11 5 C-9.35 4.67 -7.7 4.34 -6 4 C-5.67 5.32 -5.34 6.64 -5 8 C-4.34 8 -3.68 8 -3 8 C-3 9.32 -3 10.64 -3 12 C-2.34 12 -1.68 12 -1 12 C-0.67 8.04 -0.34 4.08 0 0 Z " fill="#C9E7EF" transform="translate(113,110)"/>
<path d="M0 0 C2 3 2 3 1.9375 6.4375 C1.62863266 9.92445179 1.62863266 9.92445179 3.4609375 11.76953125 C5.61722969 14.89451308 5.51352835 17.49221225 5.6875 21.25 C5.75324219 22.51328125 5.81898437 23.7765625 5.88671875 25.078125 C5.92410156 26.04234375 5.96148437 27.0065625 6 28 C5.071875 27.979375 4.14375 27.95875 3.1875 27.9375 C-0.02286011 27.84230396 -0.02286011 27.84230396 -3 29 C-1.80100302 25.9168649 -0.52299523 22.93720508 1 20 C0.01 20 -0.98 20 -2 20 C-1.94779297 19.07767578 -1.94779297 19.07767578 -1.89453125 18.13671875 C-1.85392578 16.92435547 -1.85392578 16.92435547 -1.8125 15.6875 C-1.77769531 14.88699219 -1.74289063 14.08648437 -1.70703125 13.26171875 C-2.0688383 10.46856829 -2.95333052 9.84200253 -5 8 C-6.1875 4.8125 -6.1875 4.8125 -7 2 C-4 0 -4 0 0 0 Z " fill="#0690AC" transform="translate(75,85)"/>
<path d="M0 0 C1.32 0.66 2.64 1.32 4 2 C3.731875 2.886875 3.46375 3.77375 3.1875 4.6875 C3.125625 5.780625 3.06375 6.87375 3 8 C4.62449243 9.70779973 6.29220027 11.37550757 8 13 C8 14.65 8 16.3 8 18 C3.05 18 -1.9 18 -7 18 C-6 11 -6 11 -3.9375 9.0625 C-3.298125 8.711875 -2.65875 8.36125 -2 8 C-2.33 6.02 -2.66 4.04 -3 2 C-2.01 1.34 -1.02 0.68 0 0 Z " fill="#CFA4B6" transform="translate(103,28)"/>
<path d="M0 0 C2.60964149 1.03012164 3.83498357 1.58694861 5.375 3.9375 C5.91352618 7.55331862 5.79736225 9.27861489 3.8125 12.375 C1.375 13.9375 1.375 13.9375 -2.25 13.8125 C-5.625 12.9375 -5.625 12.9375 -7.625 10.9375 C-8.0625 7.5625 -8.0625 7.5625 -7.625 3.9375 C-5.12942843 1.08541821 -3.84213882 -0.0914795 0 0 Z " fill="#EB1152" transform="translate(116.625,96.0625)"/>
<path d="M0 0 C3 0.5625 3 0.5625 5.4375 2.75 C7 5.5625 7 5.5625 6.9375 8.1875 C5.90737836 10.79714149 5.35055139 12.02248357 3 13.5625 C-0.66762206 14.10874158 -2.3258758 14.04148298 -5.375 11.875 C-7 9.5625 -7 9.5625 -7.5 7.0625 C-6.59983717 2.56168585 -4.4379939 0.83212386 0 0 Z " fill="#32DF19" transform="translate(65,32.4375)"/>
<path d="M0 0 C6.6 0 13.2 0 20 0 C20 2.31 20 4.62 20 7 C13.4 7 6.8 7 0 7 C0 4.69 0 2.38 0 0 Z " fill="#D6F3FC" transform="translate(190,95)"/>
<path d="M0 0 C9.24 0 18.48 0 28 0 C21.7414966 5.00680272 21.7414966 5.00680272 19 6.875 C18.360625 7.32617188 17.72125 7.77734375 17.0625 8.2421875 C15 9 15 9 12.58203125 8.32421875 C9.8904586 6.94382068 7.27817429 5.49958064 4.6875 3.9375 C3.80449219 3.41027344 2.92148438 2.88304687 2.01171875 2.33984375 C1.34785156 1.89769531 0.68398437 1.45554688 0 1 C0 0.67 0 0.34 0 0 Z " fill="#038FAB" transform="translate(138,37)"/>
<path d="M0 0 C2.97 0.495 2.97 0.495 6 1 C6 1.66 6 2.32 6 3 C7.32 3.33 8.64 3.66 10 4 C10.38218767 5.65614657 10.71395102 7.32457024 11 9 C10 10 10 10 6.40234375 10.09765625 C4.91403133 10.0909822 3.42573568 10.07902183 1.9375 10.0625 C0.79958008 10.05573242 0.79958008 10.05573242 -0.36132812 10.04882812 C-2.24091871 10.0370068 -4.12046899 10.01907078 -6 10 C-5.67 8.35 -5.34 6.7 -5 5 C-4.01 4.67 -3.02 4.34 -2 4 C-0.79117904 1.99983534 -0.79117904 1.99983534 0 0 Z " fill="#FA6135" transform="translate(88,64)"/>
<path d="M0 0 C6.6 0 13.2 0 20 0 C20 1.98 20 3.96 20 6 C13.4 6 6.8 6 0 6 C0 4.02 0 2.04 0 0 Z " fill="#D5F2FB" transform="translate(190,87)"/>
<path d="M0 0 C7.53624054 0.17845378 13.92395827 4.73271479 19.5 9.4375 C20.16 9.4375 20.82 9.4375 21.5 9.4375 C21.5 11.4175 21.5 13.3975 21.5 15.4375 C18.4783962 14.87094929 15.52779824 14.17750874 12.5625 13.375 C9.14416324 12.49933498 6.04279185 12.26036041 2.5 12.4375 C2.5 11.7775 2.5 11.1175 2.5 10.4375 C5.46390838 8.95554581 8.22443978 9.38003403 11.5 9.4375 C12.49 9.4375 13.48 9.4375 14.5 9.4375 C7.93657756 5.77874111 1.95071559 3.49962329 -5.5 2.4375 C-3.5 0.4375 -3.5 0.4375 0 0 Z " fill="#D6F4FC" transform="translate(91.5,118.5625)"/>
<path d="M0 0 C0.18451025 10.55808656 0.18451025 10.55808656 -1 15 C-3.97 15 -6.94 15 -10 15 C-10.50537432 9.69356959 -9.30655751 7.13319688 -6 3 C-2.6 0 -2.6 0 0 0 Z " fill="#058EAA" transform="translate(223,114)"/>
<path d="M0 0 C1.875 1.0625 1.875 1.0625 3 3 C2.6875 6.6875 2.6875 6.6875 2 10 C-4.42548263 11.33359073 -4.42548263 11.33359073 -6.9375 9.875 C-8.36066991 7.36352369 -8.42674516 5.84496772 -8 3 C-5.85607122 -0.27231235 -3.76836426 -0.56525464 0 0 Z " fill="#37DF20" transform="translate(174,102)"/>
<path d="M0 0 C5 1 5 1 6.875 2.625 C8.51175762 6.0803772 7.92777204 8.35518125 7 12 C5.6875 13.9375 5.6875 13.9375 4 15 C2.68 15 1.36 15 0 15 C0 10.05 0 5.1 0 0 Z " fill="#F40349" transform="translate(55,51)"/>
<path d="M0 0 C5.61 0 11.22 0 17 0 C17 1.98 17 3.96 17 6 C11.72 6 6.44 6 1 6 C0.67 4.02 0.34 2.04 0 0 Z " fill="#D6F2FB" transform="translate(193,104)"/>
<path d="M0 0 C10.23 0 20.46 0 31 0 C28.06964643 4.88392262 26.80600848 6.1767556 22.125 8.9375 C20.58199219 9.87916016 20.58199219 9.87916016 19.0078125 10.83984375 C16 12 16 12 13.4453125 11.37109375 C12.63835937 10.91863281 11.83140625 10.46617188 11 10 C10.12859375 9.54882812 9.2571875 9.09765625 8.359375 8.6328125 C7.49828125 8.13523437 6.6371875 7.63765625 5.75 7.125 C4.87859375 6.63257813 4.0071875 6.14015625 3.109375 5.6328125 C1 4 1 4 0 0 Z M1 1 C5.42000801 4.55989546 5.42000801 4.55989546 10 7.875 C10.639375 8.32617188 11.27875 8.77734375 11.9375 9.2421875 C14.04006236 10.24288597 14.04006236 10.24288597 16.41796875 9.32421875 C19.1095414 7.94382068 21.72182571 6.49958064 24.3125 4.9375 C25.19550781 4.41027344 26.07851562 3.88304687 26.98828125 3.33984375 C27.65214844 2.89769531 28.31601563 2.45554688 29 2 C29 1.67 29 1.34 29 1 C19.76 1 10.52 1 1 1 Z " fill="#C8E6ED" transform="translate(137,36)"/>
<path d="M0 0 C1.051875 -0.00386719 1.051875 -0.00386719 2.125 -0.0078125 C4 0.125 4 0.125 6 1.125 C6 3.435 6 5.745 6 8.125 C2.04 8.125 -1.92 8.125 -6 8.125 C-6 5.815 -6 3.505 -6 1.125 C-3.75487738 0.00243869 -2.48543351 -0.00913762 0 0 Z " fill="#3C6C71" transform="translate(190,133.875)"/>
<path d="M0 0 C3.3 0 6.6 0 10 0 C14 7.625 14 7.625 14 11 C10.04 10.67 6.08 10.34 2 10 C2.66 9.01 3.32 8.02 4 7 C4.39013716 5.0103005 4.73202649 3.00980131 5 1 C3.35 1 1.7 1 0 1 C0 0.67 0 0.34 0 0 Z " fill="#F4F2F5" transform="translate(225,133)"/>
<path d="M0 0 C3.625 0.3125 3.625 0.3125 5.5625 1.9375 C6.87566255 4.87280453 6.84191118 7.13113606 6.625 10.3125 C2.76743493 12.46555957 0.07370215 13.70503254 -4.375 13.3125 C-4.705 12.6525 -5.035 11.9925 -5.375 11.3125 C-3.065 11.3125 -0.755 11.3125 1.625 11.3125 C1.625 9.6625 1.625 8.0125 1.625 6.3125 C-0.685 6.3125 -2.995 6.3125 -5.375 6.3125 C-4.31367697 0.39941453 -4.31367697 0.39941453 0 0 Z " fill="#53E444" transform="translate(229.375,54.6875)"/>
<path d="M0 0 C6.27 0 12.54 0 19 0 C19 1.98 19 3.96 19 6 C17.39620659 6.05416188 15.79188594 6.09286638 14.1875 6.125 C13.29417969 6.14820312 12.40085938 6.17140625 11.48046875 6.1953125 C9 6 9 6 6 4 C6 3.34 6 2.68 6 2 C3.03 1.505 3.03 1.505 0 1 C0 0.67 0 0.34 0 0 Z " fill="#DDF6FE" transform="translate(191,113)"/>
<path d="M0 0 C2.64 0 5.28 0 8 0 C7.67 3.3 7.34 6.6 7 10 C4.36 10 1.72 10 -1 10 C-0.67 6.7 -0.34 3.4 0 0 Z " fill="#F95220" transform="translate(217,27)"/>
<path d="M0 0 C3.35776271 0.31235002 5.84853543 0.92426772 8.875 2.4375 C12.09898994 6.32525257 11.41727501 10.14106433 11 15 C10.67 14.34 10.34 13.68 10 13 C9.34 13 8.68 13 8 13 C6.66666667 11 5.33333333 9 4 7 C4.33 6.34 4.66 5.68 5 5 C4.34 5 3.68 5 3 5 C2.67 5.66 2.34 6.32 2 7 C1.34 6.67 0.68 6.34 0 6 C0 4.02 0 2.04 0 0 Z " fill="#E3F9FE" transform="translate(102,109)"/>
<path d="M0 0 C0.78375 0.04125 1.5675 0.0825 2.375 0.125 C3.52059325 3.6659246 3.49989895 4.85958973 1.875 8.3125 C1.1325 9.7046875 1.1325 9.7046875 0.375 11.125 C0.705 11.785 1.035 12.445 1.375 13.125 C-0.605 13.125 -2.585 13.125 -4.625 13.125 C-4.955 12.465 -5.285 11.805 -5.625 11.125 C-4.635 11.125 -3.645 11.125 -2.625 11.125 C-2.625 9.805 -2.625 8.485 -2.625 7.125 C-3.285 7.125 -3.945 7.125 -4.625 7.125 C-4.75 4.75 -4.75 4.75 -4.625 2.125 C-2.625 0.125 -2.625 0.125 0 0 Z " fill="#F4AAB8" transform="translate(145.625,84.875)"/>
<path d="M0 0 C-2.64 3.3 -5.28 6.6 -8 10 C-12.21436527 6.83922605 -12.71278701 5.8270487 -14 1 C-12.23103898 0.63659714 -10.45973374 0.28459117 -8.6875 -0.0625 C-7.70136719 -0.25972656 -6.71523437 -0.45695313 -5.69921875 -0.66015625 C-3 -1 -3 -1 0 0 Z " fill="#7AEB72" transform="translate(191,11)"/>
<path d="M0 0 C4.60470588 1.45411765 4.60470588 1.45411765 6.3125 3.8125 C7.09802451 6.31189617 7.14472595 8.39493282 7 11 C7.66 11 8.32 11 9 11 C9.33 10.01 9.66 9.02 10 8 C10.99 8.33 11.98 8.66 13 9 C11.6975667 11.90542812 10.29113732 13.8092961 8 16 C7.60167969 15.38511719 7.20335938 14.77023438 6.79296875 14.13671875 C6.26316406 13.32847656 5.73335938 12.52023438 5.1875 11.6875 C4.66542969 10.88699219 4.14335938 10.08648437 3.60546875 9.26171875 C2.10259824 6.99636864 2.10259824 6.99636864 0.28125 5.34375 C-0.1415625 4.9003125 -0.564375 4.456875 -1 4 C-0.6875 1.8125 -0.6875 1.8125 0 0 Z " fill="#D3C0C7" transform="translate(64,96)"/>
<path d="M0 0 C2.13586678 3.20380017 2.23132175 4.01939967 2.125 7.6875 C2.10695313 8.49574219 2.08890625 9.30398437 2.0703125 10.13671875 C2.03550781 11.05904297 2.03550781 11.05904297 2 12 C-1.27639744 11.26517012 -2.92445281 10.73594858 -5 8 C-6.1875 4.8125 -6.1875 4.8125 -7 2 C-4 0 -4 0 0 0 Z " fill="#E1A5B2" transform="translate(75,85)"/>
<path d="M0 0 C0.598125 0.350625 1.19625 0.70125 1.8125 1.0625 C1.4825 3.7025 1.1525 6.3425 0.8125 9.0625 C0.1525 9.0625 -0.5075 9.0625 -1.1875 9.0625 C-1.1875 9.7225 -1.1875 10.3825 -1.1875 11.0625 C-2.1775 11.0625 -3.1675 11.0625 -4.1875 11.0625 C-5.81700412 6.94081311 -6.45014601 4.35549643 -5.1875 0.0625 C-2.1875 -0.9375 -2.1875 -0.9375 0 0 Z " fill="#EAA2B0" transform="translate(192.1875,103.9375)"/>
<path d="M0 0 C0.66 0.66 1.32 1.32 2 2 C4.60280568 1.67958603 4.60280568 1.67958603 7 1 C7.1875 3.375 7.1875 3.375 7 6 C3.31912647 8.45391569 0.55644412 8.22802759 -3.6875 8.125 C-4.7403418 8.11146484 -4.7403418 8.11146484 -5.81445312 8.09765625 C-7.54311525 8.07413704 -9.27160145 8.03826713 -11 8 C-9 7 -7 6 -5 5 C-5 5.66 -5 6.32 -5 7 C-4.01 7 -3.02 7 -2 7 C-1.67 5.35 -1.34 3.7 -1 2 C-1.99 1.67 -2.98 1.34 -4 1 C-2.125 0.375 -2.125 0.375 0 0 Z " fill="#8ABFD1" transform="translate(267,110)"/>
<path d="M0 0 C4.62 0 9.24 0 14 0 C14 1.65 14 3.3 14 5 C9.71 5 5.42 5 1 5 C0.67 3.35 0.34 1.7 0 0 Z " fill="#33DF18" transform="translate(256,119)"/>
<path d="M0 0 C1 3 1 3 -0.328125 6.1640625 C-3.24128329 9.25609894 -3.5765585 9.41851452 -7.546875 9.5859375 C-9.28221968 9.54619678 -11.01707338 9.47482886 -12.75 9.375 C-13.63816406 9.34792969 -14.52632812 9.32085937 -15.44140625 9.29296875 C-17.63008395 9.22236624 -19.81379568 9.12385527 -22 9 C-21.34 7.35 -20.68 5.7 -20 4 C-19.67 4.99 -19.34 5.98 -19 7 C-15.37 7 -11.74 7 -8 7 C-8 6.34 -8 5.68 -8 5 C-8.99 5 -9.98 5 -11 5 C-11 4.34 -11 3.68 -11 3 C-9.25 2.25 -9.25 2.25 -7 2 C-4.75 3.9375 -4.75 3.9375 -3 6 C-2.01 4.02 -1.02 2.04 0 0 Z " fill="#B897A2" transform="translate(243,119)"/>
<path d="M0 0 C3.63 0 7.26 0 11 0 C11 1.98 11 3.96 11 6 C7.7 6 4.4 6 1 6 C0.67 4.02 0.34 2.04 0 0 Z " fill="#DCF2FA" transform="translate(199,121)"/>
<path d="M0 0 C0.66 0.33 1.32 0.66 2 1 C2 7.6 2 14.2 2 21 C1.01 21 0.02 21 -1 21 C-1.02888146 17.68751813 -1.04675799 14.37506833 -1.0625 11.0625 C-1.07087891 10.11697266 -1.07925781 9.17144531 -1.08789062 8.19726562 C-1.09111328 7.29814453 -1.09433594 6.39902344 -1.09765625 5.47265625 C-1.10289307 4.64000244 -1.10812988 3.80734863 -1.11352539 2.94946289 C-1 1 -1 1 0 0 Z " fill="#F30242" transform="translate(38,48)"/>
<path d="M0 0 C0.33 0 0.66 0 1 0 C1.33 13.53 1.66 27.06 2 41 C2.99 40.34 3.98 39.68 5 39 C6.32 39.33 7.64 39.66 9 40 C4.545 42.475 4.545 42.475 0 45 C0 30.15 0 15.3 0 0 Z " fill="#A9C5CA" transform="translate(217,72)"/>
<path d="M0 0 C1.32 0.33 2.64 0.66 4 1 C3.67 2.65 3.34 4.3 3 6 C1.37787941 6.52973311 -0.24781584 7.04853107 -1.875 7.5625 C-2.77992187 7.85253906 -3.68484375 8.14257812 -4.6171875 8.44140625 C-7 9 -7 9 -9 8 C-6.94766315 5.7522025 -5.99332739 4.9977758 -3 4 C-2.67 3.01 -2.34 2.02 -2 1 C-1.34 1.33 -0.68 1.66 0 2 C0 1.34 0 0.68 0 0 Z " fill="#97A0A5" transform="translate(82,137)"/>
<path d="M0 0 C2.625 0.375 2.625 0.375 5 1 C5.625 3.375 5.625 3.375 6 6 C5.34 6.66 4.68 7.32 4 8 C1.375 7.625 1.375 7.625 -1 7 C-1.625 4.625 -1.625 4.625 -2 2 C-1.34 1.34 -0.68 0.68 0 0 Z " fill="#3CE025" transform="translate(188,46)"/>
<path d="M0 0 C2.5625 0.1875 2.5625 0.1875 4.5625 2.1875 C4.19568342 5.12203261 3.69812754 6.05187246 1.5625 8.1875 C-1.97321429 7.65178571 -1.97321429 7.65178571 -3.4375 6.1875 C-3.5625 3.6875 -3.5625 3.6875 -3.4375 1.1875 C-2.4375 0.1875 -2.4375 0.1875 0 0 Z " fill="#F41A52" transform="translate(180.4375,95.8125)"/>
<path d="M0 0 C2.64 0 5.28 0 8 0 C8 2.31 8 4.62 8 7 C5.36 7 2.72 7 0 7 C0 4.69 0 2.38 0 0 Z " fill="#6EC5D7" transform="translate(119,75)"/>
<path d="M0 0 C2.5625 0.1875 2.5625 0.1875 4.5625 2.1875 C4.02678571 5.72321429 4.02678571 5.72321429 2.5625 7.1875 C0.0625 7.3125 0.0625 7.3125 -2.4375 7.1875 C-3.4375 6.1875 -3.4375 6.1875 -3.5625 3.6875 C-3.39599509 0.35740177 -3.31519894 0.2550153 0 0 Z " fill="#F40C47" transform="translate(264.4375,103.8125)"/>
<path d="M0 0 C2.625 0.375 2.625 0.375 5 1 C5.38218767 2.65614657 5.71395102 4.32457024 6 6 C5 7 5 7 1.9375 7.0625 C0.968125 7.041875 -0.00125 7.02125 -1 7 C-1.625 4.625 -1.625 4.625 -2 2 C-1.34 1.34 -0.68 0.68 0 0 Z " fill="#F40542" transform="translate(53,79)"/>
<path d="M0 0 C2.625 0.375 2.625 0.375 5 1 C5.38218767 2.65614657 5.71395102 4.32457024 6 6 C5 7 5 7 1.9375 7.0625 C0.968125 7.041875 -0.00125 7.02125 -1 7 C-1.625 4.625 -1.625 4.625 -2 2 C-1.34 1.34 -0.68 0.68 0 0 Z " fill="#1895B0" transform="translate(232,46)"/>
<path d="M0 0 C-0.66 4.62 -1.32 9.24 -2 14 C-2.33 14 -2.66 14 -3 14 C-3.50471197 12.23050388 -4.00360685 10.45934777 -4.5 8.6875 C-4.7784375 7.70136719 -5.056875 6.71523437 -5.34375 5.69921875 C-6 3 -6 3 -6 0 C-2.25 -1.125 -2.25 -1.125 0 0 Z " fill="#2BDD12" transform="translate(151,99)"/>
<path d="M0 0 C1.2065625 0.0309375 1.2065625 0.0309375 2.4375 0.0625 C2.4375 2.3725 2.4375 4.6825 2.4375 7.0625 C0.1275 7.0625 -2.1825 7.0625 -4.5625 7.0625 C-3.5234375 0.0859375 -3.5234375 0.0859375 0 0 Z " fill="#F40046" transform="translate(100.5625,37.9375)"/>
<path d="M0 0 C0.33 0 0.66 0 1 0 C1 2.97 1 5.94 1 9 C-3.29 8.67 -7.58 8.34 -12 8 C-9 4 -9 4 -6.95703125 3.609375 C-4.97135417 3.73958333 -2.98567708 3.86979167 -1 4 C-0.67 2.68 -0.34 1.36 0 0 Z " fill="#6A97A8" transform="translate(212,75)"/>
<path d="M0 0 C2.475 0.99 2.475 0.99 5 2 C5 3.65 5 5.3 5 7 C2.36 7 -0.28 7 -3 7 C-3 5.35 -3 3.7 -3 2 C-2.01 2 -1.02 2 0 2 C0 1.34 0 0.68 0 0 Z " fill="#D9EDF1" transform="translate(37,107)"/>
<path d="M0 0 C4.875 0.875 4.875 0.875 6 2 C6.04063832 3.66617115 6.042721 5.33388095 6 7 C4.02 7 2.04 7 0 7 C0 4.69 0 2.38 0 0 Z " fill="#F40245" transform="translate(104,38)"/>
<path d="M0 0 C1.62974564 0.76074843 3.25366648 1.53398433 4.875 2.3125 C5.77992187 2.74175781 6.68484375 3.17101562 7.6171875 3.61328125 C10 5 10 5 12 8 C10.01926635 7.719172 8.04041552 7.42503386 6.0625 7.125 C4.40927734 6.88136719 4.40927734 6.88136719 2.72265625 6.6328125 C1.82417969 6.42398438 0.92570312 6.21515625 0 6 C-0.33 5.34 -0.66 4.68 -1 4 C-0.34 4 0.32 4 1 4 C0.67 2.68 0.34 1.36 0 0 Z " fill="#C3EAF5" transform="translate(96,122)"/>
<path d="M0 0 C3.96 0 7.92 0 12 0 C12 1.98 12 3.96 12 6 C12.99 6 13.98 6 15 6 C16.6875 8.5 16.6875 8.5 18 11 C13.25 10.125 13.25 10.125 11 9 C11 6.36 11 3.72 11 1 C7.37 1 3.74 1 0 1 C0 0.67 0 0.34 0 0 Z " fill="#86A2A9" transform="translate(184,142)"/>
<path d="M0 0 C6.45336688 -0.69143217 9.43127968 0.42243898 14.53125 4.39453125 C16 6 16 6 16 9 C15.5153125 8.67386719 15.030625 8.34773438 14.53125 8.01171875 C9.82062995 4.94075683 5.32455084 2.80654404 0 1 C0 0.67 0 0.34 0 0 Z " fill="#99D5E4" transform="translate(93,118)"/>
<path d="M0 0 C2.31 0 4.62 0 7 0 C5.68 2.31 4.36 4.62 3 7 C1.68 6.67 0.36 6.34 -1 6 C-0.67 4.02 -0.34 2.04 0 0 Z " fill="#F41350" transform="translate(48,68)"/>
<path d="M0 0 C0.33 0 0.66 0 1 0 C1 6.27 1 12.54 1 19 C0.01 18.34 -0.98 17.68 -2 17 C-1.34 11.39 -0.68 5.78 0 0 Z " fill="#B90740" transform="translate(74,113)"/>
<path d="M0 0 C1.32 0 2.64 0 4 0 C4.38218767 1.65614657 4.71395102 3.32457024 5 5 C4 6 4 6 1.4375 6.0625 C0.2309375 6.0315625 0.2309375 6.0315625 -1 6 C-1.625 4.125 -1.625 4.125 -2 2 C-1.34 1.34 -0.68 0.68 0 0 Z " fill="#42A7BD" transform="translate(69,26)"/>
<path d="M0 0 C1.98 0 3.96 0 6 0 C6 4 6 4 4 7 C3.34 7 2.68 7 2 7 C0.3125 5.1875 0.3125 5.1875 -1 3 C-0.67 2.01 -0.34 1.02 0 0 Z " fill="#F9E2E9" transform="translate(141,12)"/>
<path d="M0 0 C2.31 0 4.62 0 7 0 C7 1.65 7 3.3 7 5 C5.02 5 3.04 5 1 5 C0.67 3.35 0.34 1.7 0 0 Z " fill="#DCF7FD" transform="translate(90,30)"/>
<path d="M0 0 C1.2065625 0.0309375 1.2065625 0.0309375 2.4375 0.0625 C2.4375 1.0525 2.4375 2.0425 2.4375 3.0625 C1.1175 2.7325 -0.2025 2.4025 -1.5625 2.0625 C-1.2325 2.7225 -0.9025 3.3825 -0.5625 4.0625 C0.7575 4.0625 2.0775 4.0625 3.4375 4.0625 C3.1075 5.0525 2.7775 6.0425 2.4375 7.0625 C0.77138095 7.105221 -0.89632885 7.10313832 -2.5625 7.0625 C-3.5625 6.0625 -3.5625 6.0625 -3.6875 3.5625 C-3.51717518 0.15600356 -3.41884482 0.08338646 0 0 Z " fill="#F40845" transform="translate(178.5625,48.9375)"/>
<path d="M0 0 C1.98 0 3.96 0 6 0 C6 1.65 6 3.3 6 5 C3 5 3 5 0 4 C-0.99 4.495 -0.99 4.495 -2 5 C-1.34 3.35 -0.68 1.7 0 0 Z " fill="#FA5C2E" transform="translate(230,105)"/>
<path d="M0 0 C2 2 2 2 2.375 3.9375 C3.20678668 6.68239603 4.64219606 7.47883617 7 9 C4.69 9 2.38 9 0 9 C-0.66 6.36 -1.32 3.72 -2 1 C-1.34 0.67 -0.68 0.34 0 0 Z " fill="#8C2A4E" transform="translate(240,138)"/>
<path d="M0 0 C0.66 0.33 1.32 0.66 2 1 C1.67 3.31 1.34 5.62 1 8 C-1.9375 7.625 -1.9375 7.625 -5 7 C-5.33 6.34 -5.66 5.68 -6 5 C-4.68 5 -3.36 5 -2 5 C-1.34 3.35 -0.68 1.7 0 0 Z " fill="#62E652" transform="translate(175,104)"/>
<path d="M0 0 C1.2065625 0.0309375 1.2065625 0.0309375 2.4375 0.0625 C2.7675 1.7125 3.0975 3.3625 3.4375 5.0625 C2.674375 4.85625 1.91125 4.65 1.125 4.4375 C-1.78135944 3.72858797 -1.78135944 3.72858797 -4.5625 6.0625 C-3.48963568 0.08511307 -3.48963568 0.08511307 0 0 Z " fill="#226562" transform="translate(145.5625,84.9375)"/>
<path d="M0 0 C0.33 1.98 0.66 3.96 1 6 C0.34 6 -0.32 6 -1 6 C-1 5.34 -1 4.68 -1 4 C-2.65 4.33 -4.3 4.66 -6 5 C-6.33 4.01 -6.66 3.02 -7 2 C-4 0 -4 0 0 0 Z " fill="#0A090A" transform="translate(75,85)"/>
<path d="M0 0 C1.65 0.99 3.3 1.98 5 3 C3.8125 4.5 3.8125 4.5 2 6 C-0.6875 6.1875 -0.6875 6.1875 -3 6 C-1.125 1.125 -1.125 1.125 0 0 Z " fill="#FAAAB8" transform="translate(230,108)"/>
<path d="M0 0 C1.67542976 0.28604898 3.34385343 0.61781233 5 1 C4.67 2.65 4.34 4.3 4 6 C2.68 5.67 1.36 5.34 0 5 C-0.5625 3.0625 -0.5625 3.0625 -1 1 C-0.67 0.67 -0.34 0.34 0 0 Z " fill="#FA7A52" transform="translate(61,76)"/>
<path d="M0 0 C0.33 0.99 0.66 1.98 1 3 C5.29 3 9.58 3 14 3 C14 3.33 14 3.66 14 4 C6.08 4.495 6.08 4.495 -2 5 C-1.34 3.35 -0.68 1.7 0 0 Z " fill="#B9D2DF" transform="translate(223,123)"/>
<path d="M0 0 C3.63 0.33 7.26 0.66 11 1 C11 1.66 11 2.32 11 3 C7.37 3 3.74 3 0 3 C0 2.01 0 1.02 0 0 Z " fill="#D6F1F9" transform="translate(197,114)"/>
<path d="M0 0 C2.0625 0.4375 2.0625 0.4375 4 1 C4 2.32 4 3.64 4 5 C2.68 5.33 1.36 5.66 0 6 C-0.38218767 4.34385343 -0.71395102 2.67542976 -1 1 C-0.67 0.67 -0.34 0.34 0 0 Z " fill="#FA754A" transform="translate(271,101)"/>
<path d="M0 0 C0.598125 0.350625 1.19625 0.70125 1.8125 1.0625 C1.8125 2.0525 1.8125 3.0425 1.8125 4.0625 C1.049375 3.876875 0.28625 3.69125 -0.5 3.5 C-3.27717375 2.83430827 -3.27717375 2.83430827 -6.1875 4.0625 C-5.875 2.125 -5.875 2.125 -5.1875 0.0625 C-2.1875 -0.9375 -2.1875 -0.9375 0 0 Z " fill="#1F1C25" transform="translate(192.1875,103.9375)"/>
<path d="M0 0 C2.0625 0.4375 2.0625 0.4375 4 1 C3.67 2.65 3.34 4.3 3 6 C1.68 5.67 0.36 5.34 -1 5 C-1 1 -1 1 0 0 Z " fill="#F876A3" transform="translate(170,90)"/>
<path d="M0 0 C2.625 0.375 2.625 0.375 5 1 C5 1.99 5 2.98 5 4 C3.35 4.33 1.7 4.66 0 5 C-0.66 4.01 -1.32 3.02 -2 2 C-1.34 1.34 -0.68 0.68 0 0 Z " fill="#2BDD13" transform="translate(63,38)"/>
<path d="M0 0 C1.65 0 3.3 0 5 0 C5 1.65 5 3.3 5 5 C3.35 5.33 1.7 5.66 0 6 C0 4.02 0 2.04 0 0 Z " fill="#C48477" transform="translate(218,30)"/>
<path d="M0 0 C0.33 0.99 0.66 1.98 1 3 C3.97 3.495 3.97 3.495 7 4 C6.34 5.32 5.68 6.64 5 8 C3.68 8 2.36 8 1 8 C0.67 5.36 0.34 2.72 0 0 Z " fill="#B4E1EE" transform="translate(228,114)"/>
<path d="M0 0 C0.99 0.33 1.98 0.66 3 1 C1.70700306 3.88437779 0.34058637 5.87219421 -2 8 C-2.66 7.01 -3.32 6.02 -4 5 C-3.67 4.01 -3.34 3.02 -3 2 C-2.34 2.33 -1.68 2.66 -1 3 C-0.67 2.01 -0.34 1.02 0 0 Z " fill="#DFA9B8" transform="translate(74,104)"/>
<path d="M0 0 C1.32 0.66 2.64 1.32 4 2 C3.67 3.32 3.34 4.64 3 6 C1.68 6 0.36 6 -1 6 C-1.625 4.125 -1.625 4.125 -2 2 C-1.34 1.34 -0.68 0.68 0 0 Z " fill="#50E241" transform="translate(228,89)"/>
<path d="M0 0 C0.99 0 1.98 0 3 0 C3 2.64 3 5.28 3 8 C1.68 7.34 0.36 6.68 -1 6 C-0.67 4.02 -0.34 2.04 0 0 Z " fill="#338AA7" transform="translate(34,55)"/>
<path d="M0 0 C0.66 0.33 1.32 0.66 2 1 C1.01 2.98 0.02 4.96 -1 7 C-1.99 7 -2.98 7 -4 7 C-4.66 6.01 -5.32 5.02 -6 4 C-4.02 2.68 -2.04 1.36 0 0 Z " fill="#5EE051" transform="translate(185,13)"/>
<path d="M0 0 C2.475 0.495 2.475 0.495 5 1 C5.125 3.375 5.125 3.375 5 6 C4.34 6.66 3.68 7.32 3 8 C2.01 7.67 1.02 7.34 0 7 C0.66 5.02 1.32 3.04 2 1 C1.34 0.67 0.68 0.34 0 0 Z " fill="#89848F" transform="translate(142,146)"/>
<path d="M0 0 C1.65 0.33 3.3 0.66 5 1 C4.67 2.32 4.34 3.64 4 5 C2.35 4.67 0.7 4.34 -1 4 C-0.67 2.68 -0.34 1.36 0 0 Z " fill="#44A7BD" transform="translate(60,86)"/>
<path d="M0 0 C2.475 0.99 2.475 0.99 5 2 C5 2.99 5 3.98 5 5 C3.35 5.66 1.7 6.32 0 7 C0 4.69 0 2.38 0 0 Z " fill="#F9E3EA" transform="translate(266,56)"/>
<path d="M0 0 C1.98 0.495 1.98 0.495 4 1 C3.67 2.65 3.34 4.3 3 6 C1.68 5.67 0.36 5.34 -1 5 C-0.67 3.35 -0.34 1.7 0 0 Z " fill="#4DE338" transform="translate(127,53)"/>
<path d="M0 0 C0.99 0 1.98 0 3 0 C3.33 2.64 3.66 5.28 4 8 C3.34 8 2.68 8 2 8 C2 7.34 2 6.68 2 6 C1.34 6 0.68 6 0 6 C0 4.02 0 2.04 0 0 Z " fill="#EDD2CD" transform="translate(142,99)"/>
<path d="M0 0 C0.33 1.32 0.66 2.64 1 4 C-1.71182212 6.60334924 -2.89133813 6.99456691 -6.75 7.1875 C-7.8225 7.125625 -8.895 7.06375 -10 7 C-9.67 6.34 -9.34 5.68 -9 5 C-6.93359375 4.3671875 -6.93359375 4.3671875 -4.4375 3.875 C-3.61121094 3.70742187 -2.78492188 3.53984375 -1.93359375 3.3671875 C-0.97646484 3.18542969 -0.97646484 3.18542969 0 3 C0 2.01 0 1.02 0 0 Z " fill="#27DD0A" transform="translate(234,63)"/>
<path d="M0 0 C3.875 2.75 3.875 2.75 5 5 C7.01669827 6.13350534 7.01669827 6.13350534 9 7 C7.68 7 6.36 7 5 7 C4.67 7.66 4.34 8.32 4 9 C0.06153846 5.67692308 0.06153846 5.67692308 -0.25 2.25 C-0.1675 1.5075 -0.085 0.765 0 0 Z " fill="#65E656" transform="translate(58,37)"/>
<path d="M0 0 C1.32 0.66 2.64 1.32 4 2 C3.34 3.32 2.68 4.64 2 6 C0.68 5.34 -0.64 4.68 -2 4 C-1.34 2.68 -0.68 1.36 0 0 Z " fill="#3FA4BC" transform="translate(199,55)"/>
<path d="M0 0 C2.475 0.495 2.475 0.495 5 1 C5 2.32 5 3.64 5 5 C3.35 5 1.7 5 0 5 C0 3.35 0 1.7 0 0 Z " fill="#F43A64" transform="translate(189,39)"/>
<path d="M0 0 C1.32 0 2.64 0 4 0 C4 1.65 4 3.3 4 5 C2.35 4.67 0.7 4.34 -1 4 C-0.67 2.68 -0.34 1.36 0 0 Z " fill="#41A4BD" transform="translate(270,111)"/>
<path d="M0 0 C-4.75 4.875 -4.75 4.875 -7 6 C-7 4.02 -7 2.04 -7 0 C-3.86650268 -1.04449911 -3.01031744 -0.93423645 0 0 Z " fill="#D8F5FD" transform="translate(225,108)"/>
<path d="M0 0 C1.2065625 0.0309375 1.2065625 0.0309375 2.4375 0.0625 C2.7675 1.3825 3.0975 2.7025 3.4375 4.0625 C2.1175 3.4025 0.7975 2.7425 -0.5625 2.0625 C-1.5525 2.7225 -2.5425 3.3825 -3.5625 4.0625 C-3.5625 0.08689024 -3.5625 0.08689024 0 0 Z M0.4375 4.0625 C1.0975 4.3925 1.7575 4.7225 2.4375 5.0625 C2.1075 5.7225 1.7775 6.3825 1.4375 7.0625 C0.4475 6.7325 -0.5425 6.4025 -1.5625 6.0625 C-0.9025 5.4025 -0.2425 4.7425 0.4375 4.0625 Z " fill="#2ADE0E" transform="translate(171.5625,101.9375)"/>
<path d="M0 0 C1.98 0 3.96 0 6 0 C5.67 1.32 5.34 2.64 5 4 C3.68 4.33 2.36 4.66 1 5 C0.67 3.35 0.34 1.7 0 0 Z " fill="#F5668C" transform="translate(263,106)"/>
<path d="M0 0 C1.32 0 2.64 0 4 0 C4.33 1.65 4.66 3.3 5 5 C3.02 5 1.04 5 -1 5 C-0.67 3.35 -0.34 1.7 0 0 Z " fill="#53E345" transform="translate(63,34)"/>
<path d="M0 0 C0.68707555 2.49064888 1 4.37886292 1 7 C-1.31 7.33 -3.62 7.66 -6 8 C-3.375 4.125 -3.375 4.125 0 3 C0 2.01 0 1.02 0 0 Z " fill="#927986" transform="translate(79,138)"/>
<path d="M0 0 C1.2065625 0.0309375 1.2065625 0.0309375 2.4375 0.0625 C2.4375 2.3725 2.4375 4.6825 2.4375 7.0625 C2.1075 7.0625 1.7775 7.0625 1.4375 7.0625 C1.4375 5.0825 1.4375 3.1025 1.4375 1.0625 C-1.25975519 2.95057863 -2.69466429 4.26074644 -4.5625 7.0625 C-3.5234375 0.0859375 -3.5234375 0.0859375 0 0 Z " fill="#E03163" transform="translate(100.5625,37.9375)"/>
<path d="M0 0 C1.65 0 3.3 0 5 0 C5 1.32 5 2.64 5 4 C3.35 4 1.7 4 0 4 C0 2.68 0 1.36 0 0 Z " fill="#F7FDFF" transform="translate(121,77)"/>
<path d="M0 0 C1.65 0 3.3 0 5 0 C5 1.32 5 2.64 5 4 C3.35 4 1.7 4 0 4 C0 2.68 0 1.36 0 0 Z " fill="#D8F5FD" transform="translate(110,28)"/>
<path d="M0 0 C3.96 1.98 3.96 1.98 8 4 C8 4.33 8 4.66 8 5 C6.02 5 4.04 5 2 5 C1.34 3.35 0.68 1.7 0 0 Z " fill="#96D4E3" transform="translate(96,122)"/>
<path d="M0 0 C1.32 0 2.64 0 4 0 C4.33 1.32 4.66 2.64 5 4 C4.01 4.495 4.01 4.495 3 5 C0.875 4.0625 0.875 4.0625 -1 3 C-0.67 2.01 -0.34 1.02 0 0 Z " fill="#87C7D6" transform="translate(233,48)"/>
<path d="M0 0 C1.98 0 3.96 0 6 0 C5.67 0.99 5.34 1.98 5 3 C4.01 3 3.02 3 2 3 C1.67 3.66 1.34 4.32 1 5 C0.67 3.35 0.34 1.7 0 0 Z " fill="#F5809E" transform="translate(51,81)"/>
<path d="M0 0 C1.32 1.32 2.64 2.64 4 4 C3.67 4.99 3.34 5.98 3 7 C2.34 7 1.68 7 1 7 C0.67 4.69 0.34 2.38 0 0 Z " fill="#C10740" transform="translate(79,132)"/>
<path d="M0 0 C0.99 0.33 1.98 0.66 3 1 C3.33 3.64 3.66 6.28 4 9 C3.01 9 2.02 9 1 9 C1.020625 7.88625 1.04125 6.7725 1.0625 5.625 C1.26380718 2.16784079 1.26380718 2.16784079 0 0 Z " fill="#028EAB" transform="translate(225,113)"/>
<path d="M0 0 C1.32 0 2.64 0 4 0 C4 1.32 4 2.64 4 4 C2.35 4 0.7 4 -1 4 C-0.67 2.68 -0.34 1.36 0 0 Z " fill="#75E86B" transform="translate(260,119)"/>
<path d="M0 0 C-0.33 1.32 -0.66 2.64 -1 4 C-3.475 3.01 -3.475 3.01 -6 2 C-6 1.34 -6 0.68 -6 0 C-2.25 -1.125 -2.25 -1.125 0 0 Z " fill="#F67B9B" transform="translate(185,98)"/>
<path d="M0 0 C0.99 0.33 1.98 0.66 3 1 C3 1.99 3 2.98 3 4 C1.35 3.67 -0.3 3.34 -2 3 C-2.33 3.66 -2.66 4.32 -3 5 C-2.625 3.0625 -2.625 3.0625 -2 1 C-1.34 0.67 -0.68 0.34 0 0 Z " fill="#1A1921" transform="translate(103,28)"/>
</svg>
